<?xml version="1.0" standalone="no"?>
<!DOCTYPE svg PUBLIC "-//W3C//DTD SVG 20010904//EN"
 "http://www.w3.org/TR/2001/REC-SVG-20010904/DTD/svg10.dtd">
<svg version="1.0" xmlns="http://www.w3.org/2000/svg"
 width="1440.000000pt" height="2560.000000pt" viewBox="0 0 1440.000000 2560.000000"
 preserveAspectRatio="xMidYMid meet">

<g transform="translate(0.000000,2560.000000) scale(0.100000,-0.100000)"
fill="#000000" stroke="none">
<path d="M0 12800 l0 -12800 7200 0 7200 0 0 12800 0 12800 -7200 0 -7200 0 0
-12800z m12600 12610 c0 -20 19 -30 56 -30 l24 0 0 -210 0 -210 -150 0 -150 0
0 209 0 210 38 3 c29 2 38 7 40 25 3 19 10 22 55 25 69 4 87 -1 87 -22z
m-1320 -230 c0 -163 -1 -170 -20 -170 -19 0 -20 7 -20 145 0 80 -2 145 -5 145
-3 0 -22 -7 -42 -15 -44 -19 -43 -19 -43 3 0 13 17 24 58 39 31 12 60 22 65
22 4 1 7 -75 7 -169z m292 159 c32 -17 48 -71 48 -159 0 -127 -27 -170 -105
-170 -78 0 -105 43 -105 170 0 86 16 141 47 159 24 14 89 14 115 0z m270 0
c32 -17 48 -71 48 -159 0 -127 -27 -170 -105 -170 -78 0 -105 43 -105 170 0
86 16 141 47 159 24 14 89 14 115 0z m220 -6 c27 -24 25 -97 -4 -117 -29 -21
-67 -20 -90 1 -23 21 -24 89 -1 115 20 22 70 23 95 1z m1060 6 c32 -17 48 -71
48 -159 0 -127 -27 -170 -105 -170 -78 0 -105 43 -105 170 0 86 16 141 47 159
24 14 89 14 115 0z m273 -11 c49 -43 56 -167 14 -249 -18 -37 -74 -69 -120
-69 -35 0 -19 34 18 38 38 4 83 46 83 79 0 20 -3 22 -19 13 -22 -11 -71 -13
-96 -4 -25 10 -45 58 -45 108 0 65 36 106 95 106 31 0 52 -7 70 -22z m365
-148 c0 -163 -1 -170 -20 -170 -19 0 -20 7 -20 145 0 80 -2 145 -5 145 -3 0
-22 -7 -42 -15 -44 -19 -43 -19 -43 3 0 13 17 24 58 39 31 12 60 22 65 22 4 1
7 -75 7 -169z m340 150 c0 -18 -7 -20 -70 -20 -53 0 -70 -3 -70 -14 0 -7 -3
-27 -6 -43 l-6 -30 50 5 c44 4 54 1 76 -21 27 -27 42 -83 32 -123 -19 -76
-120 -102 -177 -45 -34 34 -38 61 -9 61 11 0 20 -5 20 -12 0 -35 64 -62 96
-40 35 23 44 88 16 122 -19 23 -44 27 -105 15 l-38 -8 6 64 c11 117 4 109 100
109 78 0 85 -2 85 -20z m-1919 -37 c-5 -10 -41 -70 -81 -133 -63 -102 -89
-132 -91 -107 -1 17 155 257 168 257 10 0 11 -5 4 -17z m1366 -34 c16 -16 5
-39 -18 -39 -12 0 -19 7 -19 18 0 31 17 41 37 21z m-2747 -164 l0 -135 -35 0
-35 0 0 102 c0 101 0 102 32 135 18 18 33 33 35 33 2 0 3 -61 3 -135z m-625
86 c61 -27 70 -43 41 -70 l-24 -22 -33 20 c-19 12 -50 21 -69 21 -19 0 -50 -9
-69 -21 l-33 -20 -24 22 c-19 18 -22 25 -11 37 21 26 90 52 137 52 25 0 63 -9
85 -19z m152 -61 l21 -40 -48 0 -48 0 21 40 c12 22 24 40 27 40 3 0 15 -18 27
-40z m1903 20 c44 -44 15 -130 -44 -130 -51 0 -71 21 -71 75 0 35 5 50 19 61
28 20 73 17 96 -6z m-1520 -90 l0 -90 -35 0 -35 0 0 57 c0 51 4 61 32 90 18
18 33 33 35 33 2 0 3 -40 3 -90z m-575 46 c19 -8 35 -19 35 -23 0 -5 -18 -27
-40 -48 l-40 -39 -40 39 c-22 21 -40 43 -40 48 0 9 57 36 78 37 7 0 28 -7 47
-14z m3412 -47 c16 -16 5 -39 -18 -39 -12 0 -19 7 -19 18 0 31 17 41 37 21z
m-3219 -39 c-13 -22 -25 -40 -28 -40 -3 0 -15 18 -28 40 l-23 40 51 0 51 0
-23 -40z m282 -10 l0 -40 -42 0 -42 0 39 40 c21 22 40 40 42 40 2 0 3 -18 3
-40z m-9625 -930 c19 -21 18 -22 -75 -115 l-95 -95 203 0 202 0 0 -35 0 -35
-202 0 -203 0 93 -93 92 -92 -22 -23 -23 -22 -132 132 -133 133 132 132 c73
73 135 133 139 133 3 0 14 -9 24 -20z m3216 -10 c21 -12 25 -50 7 -68 -21 -21
-57 -14 -70 14 -11 23 -10 29 11 45 27 22 27 22 52 9z m-1478 -23 c44 -19 103
-87 116 -134 28 -99 6 -207 -53 -268 -50 -52 -91 -65 -208 -65 l-88 0 0 240 0
240 100 0 c62 0 113 -5 133 -13z m1277 -62 c0 -45 0 -45 35 -45 32 0 35 -2 35
-30 0 -28 -3 -30 -35 -30 l-35 0 0 -108 c0 -115 6 -132 47 -132 19 0 23 -5 23
-29 0 -24 -5 -31 -29 -36 -40 -9 -99 18 -111 50 -6 15 -10 78 -10 141 l0 114
-30 0 c-27 0 -30 3 -30 30 0 27 3 30 30 30 29 0 30 2 30 45 l0 45 40 0 40 0 0
-45z m-526 -41 c10 -4 16 -18 16 -40 0 -30 -3 -34 -26 -34 -28 0 -65 -16 -76
-34 -4 -6 -8 -66 -8 -133 l0 -123 -40 0 -40 0 0 180 0 180 40 0 c28 0 40 -4
40 -14 0 -11 8 -10 37 5 43 22 37 21 57 13z m288 -22 c41 -24 48 -48 52 -182
2 -69 7 -133 11 -142 6 -16 1 -18 -39 -18 -36 0 -46 4 -46 16 0 15 -3 14 -27
-1 -57 -38 -150 -18 -179 37 -46 89 25 168 154 168 39 0 42 2 42 28 0 38 -17
52 -62 52 -27 0 -41 -6 -50 -20 -9 -14 -24 -20 -50 -20 -42 0 -47 12 -22 48
40 58 146 74 216 34z m778 1 c47 -27 72 -77 77 -151 4 -57 1 -74 -19 -112 -31
-57 -77 -84 -143 -84 -102 0 -165 68 -165 182 0 101 42 163 123 182 39 10 94
2 127 -17z m407 -1 c33 -21 43 -71 43 -214 l0 -128 -40 0 -40 0 0 130 c0 117
-2 132 -20 150 -26 26 -70 26 -98 0 -20 -19 -22 -30 -22 -150 l0 -130 -40 0
-40 0 0 180 0 180 40 0 c34 0 40 -3 40 -22 0 -20 1 -20 19 -4 39 36 110 39
158 8z m-1947 -114 c0 -143 8 -168 57 -168 27 0 64 17 75 34 4 6 8 68 8 139
l0 127 40 0 40 0 0 -180 0 -180 -40 0 c-29 0 -40 4 -40 15 0 14 -3 14 -22 1
-34 -21 -88 -27 -128 -13 -58 20 -70 58 -70 220 l0 137 40 0 40 0 0 -132z
m1220 -48 l0 -180 -40 0 -40 0 0 180 0 180 40 0 40 0 0 -180z m-3272 -1664 c4
-21 -14 -37 -35 -29 -14 5 -18 35 -6 47 12 12 38 1 41 -18z m2310 0 c4 -21
-14 -37 -35 -29 -14 5 -18 35 -6 47 12 12 38 1 41 -18z m-2408 -6 c0 -18 -7
-20 -60 -20 l-60 0 0 -170 0 -170 -25 0 -25 0 0 170 0 169 -62 3 c-50 2 -63 6
-66 21 -3 16 9 17 147 17 144 0 151 -1 151 -20z m1270 -2 c63 -44 75 -70 75
-168 0 -74 -3 -93 -21 -117 -33 -46 -98 -73 -176 -73 l-68 0 0 190 0 190 79 0
c64 0 84 -4 111 -22z m972 -40 c2 -28 8 -34 31 -36 38 -5 36 -32 -3 -32 l-31
0 3 -102 3 -103 28 -3 c19 -2 27 -9 27 -23 0 -15 -7 -19 -39 -19 -21 0 -43 6
-49 13 -6 7 -13 62 -14 123 l-3 109 -27 3 c-16 2 -28 9 -28 17 0 8 12 15 28
17 22 2 28 8 30 36 2 23 8 32 22 32 14 0 20 -9 22 -32z m-1889 -39 c12 -7 25
-17 29 -23 4 -7 14 -4 27 8 11 10 40 21 64 23 36 4 48 1 72 -20 28 -24 29 -27
33 -146 l4 -121 -26 0 -26 0 0 107 c0 119 -10 143 -62 143 -55 0 -68 -27 -68
-145 l0 -105 -25 0 -25 0 0 109 c0 86 -3 113 -16 125 -22 22 -66 20 -92 -4
-20 -19 -22 -31 -22 -125 0 -98 -1 -105 -20 -105 -19 0 -20 7 -20 140 0 131 1
140 19 140 11 0 21 -5 23 -12 3 -8 11 -7 28 5 28 20 72 22 103 6z m483 -23
c19 -19 34 -44 34 -57 0 -13 3 -34 6 -46 6 -23 5 -23 -95 -23 -55 0 -101 -2
-101 -5 0 -3 6 -21 14 -39 20 -48 66 -63 117 -38 52 26 75 11 36 -23 -22 -20
-39 -25 -81 -25 -92 0 -132 52 -124 160 6 85 48 128 127 129 25 1 41 -7 67
-33z m1014 9 c0 -21 -5 -25 -28 -25 -46 0 -52 -15 -52 -132 l0 -108 -25 0 -25
0 0 140 c0 131 1 140 19 140 11 0 21 -5 23 -12 3 -8 11 -7 28 5 36 25 60 22
60 -8z m203 14 c37 -17 45 -44 50 -166 3 -113 3 -113 -20 -113 -14 0 -23 6
-23 16 0 14 -2 14 -22 0 -36 -25 -104 -21 -133 9 -63 62 -6 145 100 145 53 0
66 17 41 55 -21 32 -74 34 -101 5 -20 -23 -55 -27 -55 -7 0 15 37 51 60 60 26
9 78 7 103 -4z m607 -2 c41 -21 70 -74 70 -128 0 -98 -42 -149 -124 -149 -87
0 -126 46 -126 149 0 50 4 65 27 91 41 49 100 64 153 37z m339 -12 c13 -12 17
-42 19 -140 l4 -125 -26 0 -25 0 -3 117 -3 118 -28 9 c-21 8 -35 7 -55 -5 -26
-14 -27 -17 -30 -127 -3 -112 -3 -112 -27 -112 l-25 0 0 140 c0 131 1 140 19
140 11 0 21 -5 23 -11 2 -6 14 -4 33 6 36 19 100 14 124 -10z m-2899 -125 l0
-140 -25 0 -25 0 0 140 0 140 25 0 25 0 0 -140z m1360 48 c0 -115 12 -142 61
-146 60 -5 69 13 69 134 l0 104 25 0 25 0 0 -140 0 -140 -25 0 c-14 0 -25 5
-25 10 0 7 -6 7 -19 0 -11 -5 -40 -10 -65 -10 -36 0 -48 5 -65 26 -18 23 -21
41 -21 140 0 107 1 114 20 114 19 0 20 -7 20 -92z m950 -48 l0 -140 -25 0 -25
0 0 140 0 140 25 0 25 0 0 -140z m10137 53 l-77 -78 -77 78 -78 77 155 0 155
0 -78 -77z m-9437 -1768 l0 -25 -115 0 -115 0 0 -80 0 -80 100 0 100 0 0 -30
0 -30 -100 0 -100 0 0 -105 0 -105 -30 0 -30 0 0 240 0 240 145 0 145 0 0 -25z
m538 -128 c41 -38 56 -78 56 -147 0 -100 -44 -163 -124 -181 -172 -39 -273
205 -137 330 49 45 157 43 205 -2z m384 8 l22 -23 31 24 c38 29 122 33 160 8
36 -24 45 -65 45 -210 l0 -134 -30 0 -30 0 0 133 c0 159 -8 177 -72 177 -29 0
-49 -7 -65 -22 -22 -20 -23 -28 -23 -155 l0 -133 -29 0 -29 0 -4 141 c-3 126
-5 142 -22 155 -26 19 -86 18 -114 -2 -21 -14 -22 -22 -22 -155 l0 -139 -30 0
-30 0 0 180 0 180 25 0 c16 0 25 -6 25 -15 0 -18 5 -19 33 -3 58 31 126 28
159 -7z m-792 9 c0 -14 2 -14 22 0 12 9 37 16 55 16 28 0 33 -4 33 -24 0 -19
-6 -24 -36 -29 -69 -11 -74 -23 -74 -174 l0 -133 -30 0 -30 0 0 180 0 180 30
0 c20 0 30 -5 30 -16z m3665 -1846 c60 -31 124 -96 156 -158 20 -38 24 -60 24
-140 0 -84 -3 -101 -27 -145 -32 -60 -97 -124 -158 -156 -38 -20 -60 -24 -140
-24 -80 0 -102 4 -140 24 -61 32 -126 96 -158 156 -24 44 -27 61 -27 145 0
110 17 154 89 228 73 77 139 103 251 98 63 -2 91 -8 130 -28z m-855 -308 l0
-200 -25 0 c-16 0 -25 6 -25 16 0 14 -2 14 -22 0 -12 -9 -41 -16 -63 -16 -33
0 -47 6 -70 30 -26 27 -30 39 -33 103 -3 63 -1 77 20 107 31 46 83 61 133 37
l35 -17 0 70 c0 68 1 70 25 70 l25 0 0 -200z m2250 83 l0 -118 53 58 c41 46
58 57 82 57 l29 0 -35 -37 c-76 -82 -73 -74 -36 -124 18 -24 46 -61 61 -81
l28 -38 -28 0 c-24 1 -38 13 -77 66 -58 78 -77 75 -77 -12 0 -51 -1 -54 -25
-54 l-25 0 0 200 0 200 25 0 25 0 0 -117z m1330 -83 l0 -200 -25 0 c-16 0 -25
6 -25 16 0 14 -2 14 -22 0 -12 -9 -41 -16 -63 -16 -33 0 -47 6 -70 30 -26 27
-30 39 -33 103 -3 63 -1 77 20 107 31 46 83 61 133 37 l35 -17 0 70 c0 68 1
70 25 70 l25 0 0 -200z m-5230 160 c0 -19 -7 -20 -95 -20 l-96 0 3 -62 3 -63
83 -3 c74 -3 82 -5 82 -22 0 -18 -7 -20 -85 -20 l-85 0 0 -85 c0 -78 -2 -85
-20 -85 -19 0 -20 7 -20 190 l0 190 115 0 c108 0 115 -1 115 -20z m3149 5 c33
-17 41 -33 41 -85 0 -29 -6 -44 -23 -57 l-24 -17 29 -24 c23 -20 28 -32 28
-69 0 -24 -5 -53 -11 -65 -17 -32 -71 -48 -159 -48 l-80 0 0 190 0 190 85 0
c56 0 96 -5 114 -15z m-2929 -88 c41 -21 70 -74 70 -128 0 -98 -42 -149 -124
-149 -87 0 -126 46 -126 149 0 50 4 65 27 91 41 49 100 64 153 37z m270 -12
c0 -21 -5 -25 -28 -25 -46 0 -52 -15 -52 -132 l0 -108 -25 0 -25 0 0 140 c0
131 1 140 19 140 11 0 21 -5 23 -12 3 -8 11 -7 28 5 36 25 60 22 60 -8z m623
14 c37 -17 45 -44 50 -166 3 -113 3 -113 -20 -113 -14 0 -23 6 -23 16 0 14 -2
14 -22 0 -36 -25 -104 -21 -133 9 -63 62 -6 145 100 145 53 0 66 17 41 55 -21
32 -74 34 -101 5 -20 -23 -55 -27 -55 -7 0 15 37 51 60 60 26 9 78 7 103 -4z
m257 -14 c0 -21 -5 -25 -28 -25 -46 0 -52 -15 -52 -132 l0 -108 -25 0 -25 0 0
140 c0 131 1 140 19 140 11 0 21 -5 23 -12 3 -8 11 -7 28 5 36 25 60 22 60 -8z
m2073 14 c37 -17 45 -44 50 -166 3 -113 3 -113 -20 -113 -14 0 -23 6 -23 16 0
14 -2 14 -22 0 -36 -25 -104 -21 -133 9 -63 62 -6 145 100 145 53 0 66 17 41
55 -21 32 -74 34 -101 5 -20 -23 -55 -27 -55 -7 0 15 37 51 60 60 26 9 78 7
103 -4z m290 0 c29 -15 56 -50 57 -71 0 -27 -35 -22 -48 7 -12 27 -49 40 -86
31 -55 -14 -73 -143 -26 -190 28 -29 78 -25 106 7 26 30 54 36 54 11 0 -8 -13
-29 -29 -45 -25 -24 -38 -29 -78 -29 -83 0 -123 47 -123 145 0 65 19 109 58
129 32 18 85 20 115 5z m960 0 c37 -17 45 -44 50 -166 3 -113 3 -113 -20 -113
-14 0 -23 6 -23 16 0 14 -2 14 -22 0 -36 -25 -104 -21 -133 9 -63 62 -6 145
100 145 53 0 66 17 41 55 -21 32 -74 34 -101 5 -20 -23 -55 -27 -55 -7 0 15
37 51 60 60 26 9 78 7 103 -4z m257 -14 c0 -21 -5 -25 -28 -25 -46 0 -52 -15
-52 -132 l0 -108 -25 0 -25 0 0 140 c0 131 1 140 19 140 11 0 21 -5 23 -12 3
-8 11 -7 28 5 36 25 60 22 60 -8z m-4376 -37 c8 -29 21 -75 29 -103 l14 -50
32 103 c29 91 35 103 54 100 18 -2 27 -21 52 -103 17 -55 34 -95 37 -90 3 6
16 52 29 103 21 84 26 92 47 92 15 0 22 -5 19 -12 -2 -7 -12 -40 -21 -73 -53
-187 -56 -195 -76 -195 -16 0 -26 20 -54 108 -25 75 -37 101 -41 87 -53 -171
-62 -190 -81 -193 -18 -3 -24 12 -57 130 -21 73 -37 136 -37 141 0 4 9 7 20 7
15 0 23 -12 34 -52z m3580 0 c8 -29 21 -75 29 -103 l14 -50 32 103 c29 91 35
103 54 100 18 -2 27 -21 52 -103 17 -55 34 -95 37 -90 3 6 16 52 29 103 21 84
26 92 47 92 15 0 22 -5 19 -12 -2 -7 -12 -40 -21 -73 -53 -187 -56 -195 -76
-195 -16 0 -26 20 -54 108 -25 75 -37 101 -41 87 -53 -171 -62 -190 -81 -193
-18 -3 -24 12 -57 130 -21 73 -37 136 -37 141 0 4 9 7 20 7 15 0 23 -12 34
-52z m-5944 -3293 l0 -245 -30 0 -30 0 0 204 0 205 -57 -20 c-31 -10 -58 -19
-60 -19 -2 0 -3 12 -1 26 3 23 14 31 88 59 47 18 86 33 88 34 1 1 2 -109 2
-244z m7428 218 c47 -34 57 -68 60 -199 5 -183 -18 -240 -107 -264 -84 -22
-159 24 -181 112 -7 28 -11 94 -9 160 5 130 21 171 79 201 44 23 121 18 158
-10z m-6988 -143 l0 -160 36 0 c31 0 35 -3 32 -22 -2 -18 -11 -24 -35 -26 -33
-3 -33 -4 -33 -58 0 -53 0 -54 -30 -54 -30 0 -30 1 -30 55 l0 55 -110 0 c-104
0 -110 1 -110 21 0 11 48 94 106 185 103 159 107 164 140 164 l34 0 0 -160z
m-860 -2685 l0 -75 90 0 90 0 0 75 c0 68 2 75 20 75 19 0 20 -7 20 -170 0
-163 -1 -170 -20 -170 -18 0 -20 7 -20 80 l0 80 -90 0 -90 0 0 -80 c0 -73 -2
-80 -20 -80 -19 0 -20 7 -20 170 0 163 1 170 20 170 18 0 20 -7 20 -75z m7050
-65 c30 -77 57 -140 60 -140 3 0 30 63 60 140 48 122 58 140 78 140 22 0 22 0
22 -170 0 -143 -2 -170 -15 -170 -12 0 -15 24 -17 138 l-3 137 -56 -135 c-34
-83 -61 -135 -70 -135 -9 0 -36 53 -71 140 l-57 140 -1 -142 c0 -136 -1 -143
-20 -143 -19 0 -20 7 -20 170 l0 170 28 0 c26 0 30 -7 82 -140z m345 120 c0
-22 -29 -18 -33 3 -3 14 1 18 15 15 10 -2 18 -10 18 -18z m665 -40 c0 -23 4
-30 20 -30 11 0 20 -7 20 -15 0 -8 -9 -15 -20 -15 -20 0 -21 -5 -18 -92 3 -88
4 -93 26 -96 34 -5 28 -32 -7 -32 -47 0 -61 30 -61 132 0 81 -2 88 -20 88 -11
0 -20 7 -20 15 0 8 9 15 20 15 16 0 20 7 20 30 0 23 4 30 20 30 16 0 20 -7 20
-30z m-7601 -46 c27 -19 51 -71 51 -110 0 -40 -30 -93 -61 -109 -48 -25 -87
-19 -125 19 -30 30 -34 40 -34 85 0 56 19 104 47 120 28 16 96 13 122 -5z
m141 -75 c0 -109 8 -129 55 -129 55 0 65 18 65 126 0 87 1 94 20 94 19 0 20
-7 20 -125 0 -118 -1 -125 -20 -125 -11 0 -20 7 -20 16 0 14 -2 14 -22 0 -32
-23 -78 -20 -105 6 -21 20 -23 30 -23 125 0 85 3 103 15 103 12 0 15 -17 15
-91z m260 74 c0 -15 1 -15 18 0 23 21 62 22 62 2 0 -9 -9 -15 -22 -15 -46 0
-58 -26 -58 -127 0 -76 -3 -93 -15 -93 -13 0 -15 21 -15 125 0 104 2 125 15
125 8 0 15 -7 15 -17z m285 -8 c30 -29 32 -45 5 -45 -11 0 -20 4 -20 10 0 5
-11 17 -24 25 -30 20 -73 11 -81 -16 -9 -28 9 -45 60 -58 78 -20 105 -65 66
-112 -16 -20 -28 -24 -76 -24 -48 0 -60 4 -76 24 -10 13 -19 27 -19 32 0 16
25 9 43 -12 14 -15 27 -19 60 -17 35 3 43 7 45 26 5 30 -12 49 -51 58 -64 13
-87 32 -87 69 0 43 29 65 88 65 32 0 49 -6 67 -25z m6255 -100 c0 -118 -1
-125 -20 -125 -19 0 -20 7 -20 125 0 118 1 125 20 125 19 0 20 -7 20 -125z
m110 109 c0 -15 2 -15 25 0 25 17 82 21 101 8 25 -16 34 -56 34 -146 0 -89 -1
-96 -20 -96 -19 0 -20 7 -20 98 0 53 -4 103 -9 111 -13 20 -67 18 -91 -4 -17
-16 -20 -31 -20 -112 0 -76 -3 -93 -15 -93 -13 0 -15 21 -15 125 0 104 2 125
15 125 8 0 15 -7 15 -16z m270 -75 c0 -109 8 -129 55 -129 55 0 65 18 65 126
0 87 1 94 20 94 19 0 20 -7 20 -125 0 -118 -1 -125 -20 -125 -11 0 -20 7 -20
16 0 14 -2 14 -22 0 -32 -23 -78 -20 -105 6 -21 20 -23 30 -23 125 0 85 3 103
15 103 12 0 15 -17 15 -91z m554 60 c17 -20 26 -43 26 -65 l0 -34 -86 0 -86 0
7 -27 c3 -16 14 -36 22 -45 20 -22 86 -24 103 -4 6 8 19 12 27 9 13 -5 11 -10
-11 -30 -42 -36 -99 -32 -142 11 -30 30 -34 40 -34 86 0 86 36 129 107 130 34
0 46 -5 67 -31z m241 6 c30 -29 32 -45 5 -45 -11 0 -20 4 -20 10 0 5 -11 17
-24 25 -30 20 -73 11 -81 -16 -9 -28 9 -45 60 -58 78 -20 105 -65 66 -112 -16
-20 -28 -24 -76 -24 -48 0 -60 4 -76 24 -10 13 -19 27 -19 32 0 16 25 9 43
-12 14 -15 27 -19 60 -17 35 3 43 7 45 26 5 30 -12 49 -51 58 -64 13 -87 32
-87 69 0 43 29 65 88 65 32 0 49 -6 67 -25z m-3835 -3975 l0 -280 -50 0 -50 0
0 280 0 280 50 0 50 0 0 -280z m-1525 239 c119 -33 153 -176 62 -263 l-41 -39
58 -109 57 -108 -55 0 -56 0 -50 100 -50 100 -50 0 -50 0 0 -100 0 -100 -50 0
-50 0 0 265 0 265 118 0 c64 0 135 -5 157 -11z m1735 -79 l0 -50 35 0 c33 0
35 -2 35 -35 0 -33 -2 -35 -35 -35 l-35 0 0 -104 c0 -57 3 -111 6 -120 4 -10
18 -16 35 -16 27 0 29 -3 29 -40 l0 -40 -46 0 c-48 0 -81 13 -101 39 -8 11
-12 60 -13 149 l0 132 -30 0 c-28 0 -30 3 -30 35 0 32 2 35 30 35 29 0 30 1
30 50 l0 50 45 0 45 0 0 -50z m-1271 -68 c39 -27 71 -98 71 -154 l0 -48 -125
0 c-141 0 -148 -4 -96 -62 25 -28 36 -33 73 -32 24 0 56 9 71 19 26 17 27 17
46 -6 18 -23 18 -25 3 -43 -38 -42 -143 -60 -209 -35 -145 55 -151 304 -9 371
50 23 137 19 175 -10z m377 9 c44 -20 74 -54 74 -83 0 -15 -9 -18 -48 -18 -39
0 -49 4 -57 23 -8 18 -18 22 -54 22 -31 0 -47 -5 -55 -17 -19 -30 5 -51 88
-78 101 -33 126 -55 126 -112 -1 -75 -57 -118 -155 -118 -69 0 -116 19 -144
58 -34 48 -28 62 23 62 35 0 46 -4 51 -19 9 -29 67 -46 102 -29 31 14 42 49
21 65 -7 6 -45 20 -84 31 -88 27 -124 59 -124 113 0 95 127 149 236 100z
m1260 0 c44 -20 74 -54 74 -83 0 -15 -9 -18 -48 -18 -39 0 -49 4 -57 23 -8 18
-18 22 -54 22 -31 0 -47 -5 -55 -17 -19 -30 5 -51 88 -78 101 -33 126 -55 126
-112 -1 -75 -57 -118 -155 -118 -69 0 -116 19 -144 58 -34 48 -28 62 23 62 35
0 46 -4 51 -19 9 -29 67 -46 102 -29 31 14 42 49 21 65 -7 6 -45 20 -84 31
-90 27 -124 59 -124 115 0 32 6 46 35 73 19 18 45 35 57 37 52 10 106 5 144
-12z m-1006 -129 c0 -160 6 -177 64 -175 69 2 76 17 76 175 l0 138 50 0 50 0
0 -195 0 -195 -46 0 c-37 0 -47 4 -51 19 -5 19 -5 19 -36 0 -40 -24 -109 -25
-148 -2 -47 28 -59 75 -59 233 l0 140 50 0 50 0 0 -138z m-718 -719 c33 -16
58 -61 58 -103 0 -48 -32 -100 -130 -209 l-91 -101 121 0 120 0 0 -25 0 -25
-155 0 c-141 0 -155 2 -155 18 0 9 49 73 110 141 60 68 115 140 121 158 23 70
-14 123 -86 123 -50 0 -80 -21 -91 -65 -4 -18 -13 -25 -30 -25 -61 0 5 113 76
130 41 9 94 3 132 -17z m348 -223 l0 -240 -25 0 -25 0 -1 190 c-1 105 -2 194
-3 199 -2 20 -15 20 -69 2 l-57 -20 0 23 c0 20 12 28 83 54 45 17 85 31 90 31
4 1 7 -107 7 -239z m540 0 l0 -240 -25 0 -25 0 0 199 c0 110 -4 202 -9 205 -5
3 -34 -3 -65 -14 l-56 -19 0 23 c0 20 12 28 83 54 45 17 85 31 90 31 4 1 7
-107 7 -239z m480 215 c0 -25 0 -25 -99 -25 l-98 0 -7 -37 c-3 -21 -6 -53 -6
-70 0 -31 1 -32 26 -23 72 28 145 1 175 -63 36 -81 12 -189 -50 -221 -82 -43
-197 -2 -216 77 -6 24 -4 27 17 27 17 0 27 -8 35 -30 20 -53 106 -68 148 -26
30 30 40 84 25 131 -20 62 -76 82 -151 55 -64 -23 -67 -17 -53 111 7 63 13
115 13 117 1 1 55 2 121 2 l120 0 0 -25z m-760 -128 c-1 -39 -43 -48 -64 -14
-9 15 -7 21 8 32 21 16 56 4 56 -18z m0 -291 c0 -20 -27 -39 -45 -32 -25 9
-30 37 -10 52 20 15 55 2 55 -20z"/>
<path d="M11474 25306 c-16 -12 -20 -29 -22 -113 -3 -88 -2 -101 18 -126 27
-35 62 -35 89 -1 18 22 21 41 21 111 0 80 -10 119 -34 135 -18 12 -51 9 -72
-6z"/>
<path d="M11744 25306 c-16 -12 -20 -29 -22 -113 -3 -88 -2 -101 18 -126 27
-35 62 -35 89 -1 18 22 21 41 21 111 0 80 -10 119 -34 135 -18 12 -51 9 -72
-6z"/>
<path d="M11992 25318 c-19 -19 -15 -76 6 -87 28 -15 52 5 52 42 0 33 -15 57
-35 57 -6 0 -16 -5 -23 -12z"/>
<path d="M13024 25306 c-16 -12 -20 -29 -22 -113 -3 -88 -2 -101 18 -126 27
-35 62 -35 89 -1 18 22 21 41 21 111 0 80 -10 119 -34 135 -18 12 -51 9 -72
-6z"/>
<path d="M13285 25300 c-11 -12 -18 -35 -18 -60 0 -75 65 -106 112 -56 19 20
22 31 17 61 -13 68 -73 97 -111 55z"/>
<path d="M12156 25124 c-29 -28 -13 -94 22 -94 26 0 42 20 42 51 0 27 -22 59
-40 59 -5 0 -16 -7 -24 -16z"/>
<path d="M2578 23984 c-5 -4 -8 -83 -8 -176 l0 -168 50 0 c101 0 143 51 143
175 0 77 -18 125 -57 150 -26 18 -117 31 -128 19z"/>
<path d="M3635 23728 c-56 -32 -40 -98 23 -98 46 0 72 26 72 71 0 39 0 39 -37
39 -21 0 -47 -6 -58 -12z"/>
<path d="M4412 23863 c-57 -23 -54 -205 3 -227 66 -25 116 15 123 97 8 99 -51
160 -126 130z"/>
<path d="M1972 21913 l3 -148 37 -3 c51 -4 104 20 123 59 13 24 16 51 13 107
-3 69 -6 76 -36 103 -27 25 -41 29 -87 29 l-56 0 3 -147z"/>
<path d="M1562 21947 c-42 -44 -30 -57 49 -57 68 0 70 1 63 23 -17 58 -73 75
-112 34z"/>
<path d="M2802 21844 c-24 -17 -29 -53 -10 -72 19 -19 72 -14 96 8 13 12 22
33 22 50 0 29 -2 30 -43 30 -23 0 -53 -7 -65 -16z"/>
<path d="M3402 21947 c-49 -52 -31 -173 28 -187 73 -18 123 55 99 143 -18 65
-85 89 -127 44z"/>
<path d="M4354 19995 c-21 -9 -36 -25 -47 -54 -21 -52 -21 -90 0 -142 30 -75
126 -88 165 -21 68 115 -12 263 -118 217z"/>
<path d="M7500 18139 c-101 -45 -160 -138 -160 -249 1 -156 115 -270 270 -270
155 0 269 114 270 270 0 155 -114 270 -270 270 -44 0 -80 -7 -110 -21z"/>
<path d="M6730 17905 c-19 -21 -24 -37 -24 -79 0 -73 22 -106 73 -106 56 0 71
22 71 103 0 54 -4 71 -20 87 -28 28 -71 26 -100 -5z"/>
<path d="M10310 17905 c-19 -21 -24 -37 -24 -79 0 -73 22 -106 73 -106 56 0
71 22 71 103 0 54 -4 71 -20 87 -28 28 -71 26 -100 -5z"/>
<path d="M8240 17960 l0 -60 54 0 c65 0 99 22 99 65 0 40 -27 55 -95 55 l-58
0 0 -60z"/>
<path d="M8242 17793 l3 -68 56 -3 c69 -4 102 18 102 66 0 53 -26 72 -100 72
l-64 0 3 -67z"/>
<path d="M5362 17907 c-49 -52 -31 -173 28 -187 73 -18 123 55 99 143 -18 65
-85 89 -127 44z"/>
<path d="M6262 17804 c-24 -17 -29 -53 -10 -72 19 -19 72 -14 96 8 13 12 22
33 22 50 0 29 -2 30 -43 30 -23 0 -53 -7 -65 -16z"/>
<path d="M8592 17804 c-24 -17 -29 -53 -10 -72 19 -19 72 -14 96 8 13 12 22
33 22 50 0 29 -2 30 -43 30 -23 0 -53 -7 -65 -16z"/>
<path d="M9842 17804 c-24 -17 -29 -53 -10 -72 19 -19 72 -14 96 8 13 12 22
33 22 50 0 29 -2 30 -43 30 -23 0 -53 -7 -65 -16z"/>
<path d="M10745 14786 c-31 -31 -38 -73 -33 -207 3 -111 3 -111 36 -140 37
-33 51 -35 92 -14 42 22 52 68 48 214 -3 120 -4 123 -31 147 -36 31 -81 31
-112 0z"/>
<path d="M3761 14650 c-39 -61 -71 -113 -71 -115 0 -3 34 -5 75 -5 l75 0 0
115 c0 63 -2 115 -4 115 -2 0 -36 -50 -75 -110z"/>
<path d="M3394 11947 c-25 -22 -29 -32 -29 -80 0 -66 22 -97 69 -97 53 0 76
31 76 103 0 81 -62 120 -116 74z"/>
<path d="M11274 11960 c-12 -5 -26 -22 -32 -39 l-11 -31 70 0 c68 0 70 1 64
23 -8 25 -41 57 -59 56 -6 0 -21 -4 -32 -9z"/>
<path d="M6080 8075 l0 -85 60 0 c32 0 70 5 83 11 25 11 47 47 47 74 0 27 -22
63 -47 74 -13 6 -51 11 -83 11 l-60 0 0 -85z"/>
<path d="M6582 8023 c-13 -5 -42 -55 -42 -73 0 -6 31 -10 81 -10 l81 0 -7 28
c-10 41 -34 62 -69 61 -17 0 -37 -3 -44 -6z"/>
</g>
</svg>
